<svg width="400" height="400" viewBox="0 0 400 400" fill="none" xmlns="http://www.w3.org/2000/svg">
    <g clip-path="url(#clip0_4491_4446)">
        <rect width="400" height="400" fill="white"/>
        <rect x="-61" y="-71" width="522" height="542" fill="black"/>
        <path d="M197.13 46C212.68 46 226.152 47.8092 237.546 51.4276C249.075 54.9121 258.19 58.6645 264.892 62.685C271.595 66.5714 275.616 69.1177 276.957 70.3238L255.844 104.699C253.833 102.957 250.214 100.544 244.986 97.462C239.892 94.2456 233.592 91.3643 226.085 88.818C218.712 86.2717 210.468 84.9985 201.353 84.9985C187.68 84.9985 176.822 87.6789 168.778 93.0395C160.735 98.2661 156.714 105.905 156.714 115.956C156.714 122.657 158.859 128.554 163.148 133.646C167.438 138.739 173.537 143.496 181.446 147.919C189.489 152.341 199.074 156.831 210.2 161.387C219.584 165.274 228.699 169.696 237.546 174.655C246.528 179.614 254.571 185.443 261.675 192.144C268.78 198.845 274.41 206.618 278.566 215.463C282.855 224.308 285 234.493 285 246.018C285 258.08 282.52 268.801 277.56 278.182C272.6 287.429 265.764 295.269 257.051 301.702C248.337 308 238.284 312.825 226.889 316.175C215.629 319.392 203.565 321 190.696 321C173.805 321 158.591 318.99 145.052 314.969C131.647 310.815 120.789 306.526 112.477 302.104C104.166 297.547 99.3405 294.599 98 293.259L120.319 257.276C121.928 258.616 124.877 260.626 129.167 263.306C133.59 265.853 139.019 268.6 145.454 271.548C151.888 274.363 158.993 276.775 166.768 278.785C174.677 280.661 182.854 281.599 191.299 281.599C207.519 281.599 219.785 278.115 228.096 271.146C236.407 264.043 240.562 254.93 240.562 243.807C240.562 235.364 237.881 228.06 232.519 221.895C227.291 215.597 220.053 209.901 210.803 204.808C201.688 199.716 191.299 194.69 179.637 189.732C167.706 184.505 156.647 178.608 146.459 172.042C136.405 165.475 128.295 157.501 122.129 148.12C115.963 138.605 112.88 127.079 112.88 113.544C112.88 100.008 116.7 88.2149 124.341 78.1638C132.116 67.9786 142.371 60.0716 155.105 54.443C167.84 48.8143 181.848 46 197.13 46Z" fill="white"/>
    </g>
    <defs>
        <clipPath id="clip0_4491_4446">
            <rect width="400" height="400" fill="white"/>
        </clipPath>
    </defs>
</svg>
